<?xml version="1.0" standalone="no"?>
<!DOCTYPE svg PUBLIC "-//W3C//DTD SVG 20010904//EN"
 "http://www.w3.org/TR/2001/REC-SVG-20010904/DTD/svg10.dtd">
<svg version="1.0" xmlns="http://www.w3.org/2000/svg"
 width="36.000000pt" height="33.000000pt" viewBox="0 0 36.000000 33.000000"
 preserveAspectRatio="xMidYMid meet">
<metadata>
Created by potrace 1.15, written by Peter Selinger 2001-2017
</metadata>
<g transform="translate(0.000000,33.000000) scale(0.100000,-0.100000)"
fill="#000" stroke="none">
<path d="M0 165 l0 -165 180 0 180 0 0 165 0 165 -180 0 -180 0 0 -165z m247
115 c44 -26 61 -65 64 -140 2 -55 0 -65 -21 -82 -13 -10 -28 -17 -34 -15 -15
5 -20 72 -6 97 11 20 40 28 40 10 0 -5 -6 -7 -14 -4 -17 6 -34 -72 -19 -87 12
-12 56 29 47 43 -4 6 -8 28 -9 50 -3 58 -59 108 -122 108 -38 0 -89 -33 -108
-69 -19 -38 -19 -40 5 -34 15 4 22 -2 30 -22 12 -33 13 -65 0 -85 -8 -13 -13
-12 -37 6 -26 20 -28 25 -24 85 2 35 10 77 18 92 32 62 127 86 190 47z"/>
</g>
</svg>
