<?xml version="1.0" standalone="no"?>
<!DOCTYPE svg PUBLIC "-//W3C//DTD SVG 20010904//EN"
 "http://www.w3.org/TR/2001/REC-SVG-20010904/DTD/svg10.dtd">
<svg version="1.0" xmlns="http://www.w3.org/2000/svg"
 width="95.000000pt" height="94.000000pt" viewBox="0 0 95.000000 94.000000"
 preserveAspectRatio="xMidYMid meet">
<metadata>
Created by potrace 1.15, written by Peter Selinger 2001-2017
</metadata>
<g transform="translate(0.000000,94.000000) scale(0.100000,-0.100000)"
fill="#000000" stroke="none">
<path d="M0 470 l0 -470 475 0 475 0 0 470 0 470 -235 0 c-150 0 -235 -4 -235
-10 0 -6 66 -10 178 -10 125 0 182 -4 190 -12 16 -16 17 -759 2 -789 -10 -18
-25 -19 -373 -19 -269 0 -366 3 -375 12 -17 17 -17 779 0 796 8 8 64 12 185
12 109 0 173 4 173 10 0 6 -83 10 -230 10 l-230 0 0 -470z"/>
<path d="M127 725 c-4 -93 -7 -262 -7 -377 l0 -208 93 0 c52 0 209 -3 350 -7
l257 -6 2 376 3 377 -40 0 c-22 0 -178 3 -346 7 l-306 6 -6 -168z m506 88
l127 -6 0 -241 c0 -133 -4 -247 -9 -255 -8 -12 -53 -13 -281 -7 -150 3 -276 9
-281 11 -7 5 -2 467 6 493 5 14 218 17 438 5z"/>
<path d="M209 583 c0 -120 -2 -225 -4 -234 -3 -15 24 -17 255 -24 142 -4 263
-4 269 -1 7 5 11 81 11 235 l0 228 -172 6 c-95 4 -215 7 -265 7 l-93 0 -1
-217z"/>
</g>
</svg>
