<?xml version="1.0" standalone="no"?>
<!DOCTYPE svg PUBLIC "-//W3C//DTD SVG 20010904//EN"
 "http://www.w3.org/TR/2001/REC-SVG-20010904/DTD/svg10.dtd">
<svg version="1.0" xmlns="http://www.w3.org/2000/svg"
 width="223.000000pt" height="130.000000pt" viewBox="0 0 223.000000 130.000000"
 preserveAspectRatio="xMidYMid meet">
<metadata>
Created by potrace 1.15, written by Peter Selinger 2001-2017
</metadata>
<g transform="translate(0.000000,130.000000) scale(0.100000,-0.100000)"
fill="#000" stroke="none">
<path d="M0 860 l0 -440 30 0 c17 0 30 2 30 3 0 2 -9 30 -20 62 -11 32 -20 77
-20 99 0 76 28 228 45 245 13 14 38 16 160 13 119 -3 149 0 167 12 31 22 176
23 184 1 5 -12 27 -15 115 -15 l109 0 0 44 c0 75 3 76 306 76 249 0 263 -1
288 -21 20 -16 26 -29 26 -60 l0 -39 110 0 c67 0 110 4 110 10 0 14 173 13
187 -1 6 -6 68 -13 149 -15 162 -5 181 -8 188 -32 11 -36 26 -159 26 -222 0
-58 -8 -85 -81 -265 -44 -110 -85 -206 -91 -213 -7 -8 -47 -12 -134 -12 -76 0
-124 -4 -124 -10 0 -13 -152 -13 -165 -1 -12 11 -971 19 -981 8 -11 -11 -162
-8 -169 3 -4 6 -56 10 -124 10 -87 0 -122 4 -130 13 -6 8 -35 74 -64 148 l-54
134 -37 3 -36 3 0 -200 0 -201 1115 0 1115 0 0 650 0 650 -1115 0 -1115 0 0
-440z" />
<path d="M843 923 c-8 -3 -13 -24 -13 -53 l0 -48 43 -4 c23 -3 149 -6 280 -7
l237 -2 0 48 c0 27 -5 54 -12 61 -9 9 -81 12 -267 11 -141 0 -262 -3 -268 -6z" fill="#fff"/>
<path d="M407 843 c-2 -5 -17 -64 -32 -131 l-29 -124 34 -136 c36 -150 56
-182 109 -182 63 0 76 59 51 238 -14 102 -12 132 16 305 l7 37 -76 0 c-42 0
-78 -3 -80 -7z" fill="#fff"/>
<path d="M1660 820 c0 -11 7 -65 15 -121 14 -94 14 -108 -5 -217 -26 -159 -12
-222 51 -222 31 0 65 27 79 64 5 13 21 74 35 136 30 123 30 141 -6 291 l-21
89 -74 0 c-67 0 -74 -2 -74 -20z" fill="#fff"/>
<path d="M91 812 c-13 -9 -40 -152 -41 -214 l0 -28 140 0 c139 0 140 0 140 23
0 12 11 66 24 120 13 53 23 97 22 97 -45 7 -275 8 -285 2z" fill="#fff"/>
<path d="M576 798 c-8 -28 -26 -159 -26 -192 l0 -36 523 -1 c287 0 537 -1 554
-2 19 -1 35 3 38 11 2 7 -2 58 -10 115 -8 56 -15 106 -15 110 0 4 -51 6 -112
5 l-113 -3 -3 -80 c-1 -61 -6 -83 -19 -92 -24 -18 -40 -16 -63 7 -16 16 -20
30 -16 60 l5 40 -67 0 c-37 0 -131 3 -209 7 l-143 6 0 -49 c0 -56 -12 -74 -50
-74 -42 0 -50 17 -50 102 l0 78 -110 0 c-80 0 -112 -3 -114 -12z" fill="#fff"/>
<path d="M1842 788 c3 -13 13 -63 23 -113 10 -49 19 -96 21 -102 3 -10 39 -13
139 -13 l135 0 0 43 c-1 77 -20 182 -36 193 -9 8 -66 13 -151 13 l-136 2 5
-23z" fill="#fff"/>
<path d="M822 788 c4 -10 71 -15 263 -21 269 -9 305 -6 305 18 0 13 -40 15
-286 15 -224 0 -285 -3 -282 -12z" fill="#fff"/>
<path d="M50 548 c0 -7 36 -103 79 -213 l78 -200 115 -3 115 -3 -32 133 c-18
73 -41 169 -52 213 l-19 80 -142 3 c-110 2 -142 0 -142 -10z" fill="#fff"/>
<path d="M558 517 c3 -23 17 -121 32 -217 l26 -175 487 -3 487 -2 5 22 c9 42
65 401 63 403 -2 1 -251 5 -554 8 l-552 6 6 -42z" fill="#fff"/>
<path d="M1871 513 c-6 -21 -30 -118 -54 -216 l-45 -177 113 0 112 0 22 53
c67 157 141 348 141 361 0 14 -20 16 -140 16 l-139 0 -10 -37z" fill="#fff"/>
<path d="M546 275 c-13 -19 -25 -25 -54 -25 -21 0 -43 5 -50 12 -21 21 -20 5
1 -79 l22 -83 68 0 68 0 -6 33 c-3 17 -9 61 -15 96 -5 35 -11 65 -13 68 -2 2
-12 -8 -21 -22z" fill="#fff"/>
<path d="M1632 239 c-6 -35 -14 -83 -18 -107 l-7 -43 68 3 68 3 23 80 c13 44
22 81 20 82 -1 1 -16 -2 -32 -9 -41 -15 -81 -3 -97 29 -14 26 -15 25 -25 -38z" fill="#fff"/>
</g>
</svg>
