<?xml version="1.0" encoding="iso-8859-1"?>
<!-- Generator: Adobe Illustrator 19.0.0, SVG Export Plug-In . SVG Version: 6.00 Build 0)  -->
<svg xmlns="http://www.w3.org/2000/svg" xmlns:xlink="http://www.w3.org/1999/xlink" version="1.1" id="Capa_1" x="0px" y="0px" viewBox="0 0 457.913 457.913" style="enable-background:new 0 0 457.913 457.913;" xml:space="preserve" width="512px" height="512px">
<g>
	<g>
		<path d="M455.155,326.156l-12.96-11.248l6.688-57.016c0-0.152-0.048-0.296-0.04-0.456c0.008-0.16,0.12-0.312,0.12-0.48v-24    c0-123.712-100.288-224-224-224s-224,100.288-224,224v32c0,0.168,0.088,0.312,0.096,0.48c0.008,0.168-0.056,0.304,0,0.456    l6.576,56.056l-4.848,4.208c-2.712,2.331-3.548,6.178-2.048,9.424l50.712,108.752c1.312,2.819,4.139,4.622,7.248,4.624h0.248    l60.896-1.92c1.512-0.061,2.974-0.552,4.216-1.416l42.4-19.784c15.999-7.487,22.919-26.511,15.472-42.528l-47.304-101.504    c-7.468-16.018-26.506-22.949-42.524-15.482c-0.001,0.001-0.002,0.001-0.004,0.002l-43.504,20.288    c-0.712,0.372-1.363,0.853-1.928,1.424v-15.08h2.296c4.418,0,8-3.582,8-8v-32c0-92.784,75.216-168,168-168s168,75.216,168,168v24    c0,4.418,3.582,8,8,8h2.296v18.824l-37.432-17.456c-16.019-7.446-35.044-0.522-42.528,15.48l-47.328,101.504    c-7.448,16.017-0.527,35.041,15.472,42.528l42.4,19.784c1.242,0.864,2.704,1.355,4.216,1.416l60.896,1.92h0.248    c3.109-0.002,5.936-1.805,7.248-4.624l50.712-108.752C458.672,332.343,457.853,328.497,455.155,326.156z M98.859,280.796    c8.006-3.739,17.528-0.28,21.267,7.726c0.002,0.003,0.003,0.007,0.005,0.01l47.328,101.504c3.736,8.008,0.272,17.528-7.736,21.264    c0,0,0,0,0,0l-36.256,16.912L62.611,297.756L98.859,280.796z M49.139,307.004l58.008,124.408l-43.424,1.384l-45.96-98.504    l3.464-3.016l21.512-18.672L49.139,307.004z M17.955,272.956h12.712v28.976l-8.456,7.336L17.955,272.956z M224.963,48.956    c-101.62,0-184,82.38-184,184v24h-24v-24c0-114.875,93.125-208,208-208s208,93.125,208,208v16h-24v-16    C408.963,131.336,326.583,48.956,224.963,48.956z M431.971,264.956l-4.376,37.264l-8.336-7.232v-30.032H431.971z M334.467,428.244    l-36.264-16.888c-8.01-3.731-11.48-13.248-7.75-21.259c0.005-0.01,0.009-0.019,0.014-0.029l47.296-101.496    c3.73-8.011,13.248-11.48,21.259-7.75c0.004,0.002,0.009,0.004,0.013,0.006l36.28,16.928L334.467,428.244z M394.203,432.796    l-43.496-1.368l58.008-124.408l7.432,6.448l12.392,10.76l11.624,10.064L394.203,432.796z" fill="#FFFFFF"/>
	</g>
</g>
<g>
</g>
<g>
</g>
<g>
</g>
<g>
</g>
<g>
</g>
<g>
</g>
<g>
</g>
<g>
</g>
<g>
</g>
<g>
</g>
<g>
</g>
<g>
</g>
<g>
</g>
<g>
</g>
<g>
</g>
</svg>
