<?xml version="1.0" standalone="no"?>
<!DOCTYPE svg PUBLIC "-//W3C//DTD SVG 20010904//EN"
 "http://www.w3.org/TR/2001/REC-SVG-20010904/DTD/svg10.dtd">
<svg version="1.0" xmlns="http://www.w3.org/2000/svg"
 width="299.000000pt" height="255.000000pt" viewBox="0 0 299.000000 255.000000"
 preserveAspectRatio="xMidYMid meet">

<g transform="translate(0.000000,255.000000) scale(0.100000,-0.100000)"
fill="#000000" stroke="none">
<path d="M0 1275 l0 -1275 1495 0 1495 0 0 1275 0 1275 -1495 0 -1495 0 0
-1275z m2180 1165 c486 0 620 -3 634 -13 9 -7 20 -31 22 -52 4 -34 -16 -92
-126 -375 l-131 -335 -6 -679 c-6 -642 -7 -680 -25 -698 -17 -17 -53 -18 -800
-18 -431 0 -875 3 -987 7 -185 6 -206 8 -224 26 -19 19 -20 31 -12 688 l7 668
-132 351 c-109 289 -130 356 -125 383 14 65 -31 61 659 54 346 -4 907 -7 1246
-7z"/>
<path d="M317 2403 c-4 -3 -7 -17 -7 -30 l0 -23 508 0 c280 0 840 -3 1245 -7
l737 -6 0 30 0 30 -832 6 c-1061 9 -1643 9 -1651 0z"/>
<path d="M324 2314 c5 -10 60 -156 123 -324 63 -168 117 -308 121 -312 12 -11
1971 -14 1976 -3 73 184 247 638 244 640 -2 2 -559 7 -1237 11 -1211 7 -1234
7 -1227 -12z m1234 -86 c16 -16 -3 -38 -33 -38 -30 0 -49 22 -33 38 7 7 21 12
33 12 12 0 26 -5 33 -12z"/>
<path d="M1509 2220 c-11 -7 -10 -10 4 -16 10 -4 23 -2 28 3 14 14 -13 24 -32
13z"/>
<path d="M560 991 c0 -519 2 -660 12 -668 20 -16 1934 -25 1946 -10 6 7 13
264 17 668 l8 656 -258 6 c-142 4 -588 7 -991 7 l-733 0 -1 -659z m365 349 l0
-55 -104 -3 c-67 -2 -108 1 -117 9 -14 12 -20 90 -7 103 4 3 57 5 117 4 l111
-3 0 -55z m140 0 l0 -55 -55 0 -55 0 -3 44 c-5 67 0 72 60 69 l53 -3 0 -55z
m144 46 c7 -8 11 -34 9 -58 l-3 -43 -55 0 -55 0 -3 44 c-2 24 -1 50 2 57 7 19
90 19 105 0z m139 5 c9 -5 12 -25 10 -57 l-3 -49 -55 0 -55 0 -3 43 c-2 24 2
50 9 58 12 15 76 19 97 5z m151 -5 c7 -8 11 -34 9 -58 l-3 -43 -55 0 -55 0 -3
44 c-2 24 -1 50 2 57 7 19 90 19 105 0z m150 0 c7 -8 11 -34 9 -58 l-3 -43
-55 0 -55 0 -3 44 c-2 24 -1 50 2 57 7 19 90 19 105 0z m142 4 c24 -13 26 -81
4 -104 -19 -18 -93 -15 -105 5 -12 19 -3 91 12 101 18 11 66 10 89 -2z m140 0
c14 -8 19 -21 19 -53 0 -52 -13 -67 -60 -67 -20 0 -41 5 -48 12 -19 19 -15 95
6 107 22 13 58 14 83 1z m167 -48 c4 -59 -10 -74 -67 -70 l-46 3 -3 58 -3 58
58 -3 58 -3 3 -43z m137 -12 l0 -55 -43 -3 c-24 -2 -50 2 -58 9 -14 12 -20 90
-7 103 4 4 30 6 58 4 l50 -3 0 -55z m153 12 c4 -59 -10 -74 -67 -70 l-46 3 -3
44 c-5 67 0 72 60 69 l53 -3 3 -43z m-1399 -96 c7 -8 11 -36 9 -63 l-3 -48
-139 -3 c-93 -2 -143 1 -152 9 -17 14 -19 90 -2 107 18 18 272 17 287 -2z
m155 -12 c10 -26 7 -79 -6 -92 -15 -15 -95 -16 -104 -1 -12 20 -14 70 -4 90
14 25 104 28 114 3z m141 -44 l0 -55 -43 -3 c-53 -4 -72 10 -72 53 0 59 7 66
64 63 l51 -3 0 -55z m143 48 c7 -7 12 -28 12 -48 0 -20 -5 -41 -12 -48 -16
-16 -95 -16 -104 0 -8 13 -6 87 3 100 7 13 88 9 101 -4z m149 -5 c9 -22 8 -77
-1 -91 -11 -19 -103 -15 -110 4 -10 26 -7 79 6 92 19 19 97 15 105 -5z m148
-43 l0 -55 -49 -3 c-56 -4 -66 5 -66 59 0 47 16 60 70 57 l45 -3 0 -55z m143
51 c9 -5 12 -25 10 -57 l-3 -49 -55 0 -55 0 -3 43 c-2 24 2 50 9 58 12 15 76
19 97 5z m151 -5 c7 -8 11 -34 9 -58 l-3 -43 -55 0 -55 0 -3 44 c-2 24 -1 50
2 57 7 19 90 19 105 0z m359 2 c17 -17 15 -93 -2 -107 -22 -19 -293 -12 -313
7 -15 15 -14 76 1 101 10 16 298 15 314 -1z m-1360 -140 c16 -16 16 -90 0
-106 -7 -7 -28 -12 -48 -12 -20 0 -41 5 -48 12 -16 16 -16 90 0 106 16 16 80
16 96 0z m-133 -53 l0 -50 -83 -3 c-99 -3 -115 5 -107 56 3 19 8 38 11 44 3 5
45 7 92 6 l87 -3 0 -50z m323 43 c12 -16 13 -67 1 -90 -7 -14 -22 -18 -62 -18
-29 0 -58 5 -65 12 -13 13 -17 90 -5 101 12 12 120 8 131 -5z m620 3 c9 -5 12
-25 10 -57 l-3 -49 -270 -3 c-148 -1 -280 0 -292 3 -20 5 -23 12 -23 54 0 26
3 51 7 54 9 10 556 8 571 -2z m157 -51 l0 -55 -55 0 -55 0 -3 44 c-5 67 0 72
60 69 l53 -3 0 -55z m179 34 c11 -28 6 -71 -8 -83 -9 -7 -38 -11 -73 -9 l-58
3 -3 39 c-5 61 0 66 72 66 49 0 65 -4 70 -16z m221 -39 l0 -50 -83 -3 c-93 -3
-112 5 -112 48 0 59 4 61 104 58 l91 -3 0 -50z m-556 -270 c7 -4 11 -59 11
-154 0 -120 -3 -151 -15 -161 -12 -10 -78 -11 -308 -4 l-292 9 -3 149 c-2 109
1 152 10 164 11 13 50 14 300 10 157 -3 291 -9 297 -13z"/>
<path d="M710 1345 l0 -46 103 3 102 3 0 40 0 40 -102 3 -103 3 0 -46z"/>
<path d="M973 1374 c-2 -7 -3 -27 -1 -45 3 -31 5 -33 43 -33 40 -1 40 -1 43
40 l3 42 -42 4 c-26 2 -43 -1 -46 -8z"/>
<path d="M1112 1338 c3 -43 3 -43 43 -43 40 0 40 0 43 43 l3 42 -46 0 -46 0 3
-42z"/>
<path d="M1260 1334 l0 -45 43 3 c42 3 42 3 45 46 l3 42 -45 0 -46 0 0 -46z"/>
<path d="M1404 1366 c-3 -8 -4 -27 -2 -43 3 -25 7 -28 46 -31 l42 -3 0 45 0
46 -40 0 c-26 0 -43 -5 -46 -14z"/>
<path d="M1554 1366 c-3 -8 -4 -27 -2 -43 3 -25 7 -28 46 -31 l42 -3 0 45 0
46 -40 0 c-26 0 -43 -5 -46 -14z"/>
<path d="M1700 1335 l0 -45 45 0 45 0 0 45 0 45 -45 0 -45 0 0 -45z"/>
<path d="M1844 1366 c-3 -8 -4 -27 -2 -43 3 -25 7 -28 46 -31 l42 -3 0 45 0
46 -40 0 c-26 0 -43 -5 -46 -14z"/>
<path d="M1997 1373 c-4 -3 -7 -24 -7 -45 l0 -38 45 0 45 0 0 45 0 45 -38 0
c-21 0 -42 -3 -45 -7z"/>
<path d="M2140 1335 l0 -46 43 3 c42 3 42 3 42 43 0 40 0 40 -42 43 l-43 3 0
-46z"/>
<path d="M2284 1366 c-3 -8 -4 -27 -2 -43 3 -25 7 -28 46 -31 l42 -3 0 45 0
46 -40 0 c-26 0 -43 -5 -46 -14z"/>
<path d="M710 1195 l0 -45 141 0 140 0 -3 43 -3 42 -137 3 -138 3 0 -46z"/>
<path d="M1047 1234 c-4 -4 -7 -25 -7 -46 l0 -38 46 0 45 0 -3 43 c-3 40 -4
42 -38 45 -20 2 -39 0 -43 -4z"/>
<path d="M1197 1234 c-4 -4 -7 -25 -7 -46 l0 -38 46 0 45 0 -3 43 c-3 40 -4
42 -38 45 -20 2 -39 0 -43 -4z"/>
<path d="M1336 1232 c-3 -3 -6 -22 -6 -43 0 -36 1 -37 41 -41 22 -2 42 -2 45
1 7 7 4 81 -3 82 -28 6 -72 6 -77 1z"/>
<path d="M1482 1188 c3 -43 3 -43 43 -43 40 0 40 0 43 43 l3 42 -46 0 -46 0 3
-42z"/>
<path d="M1632 1188 c3 -43 3 -43 43 -43 40 0 40 0 43 43 l3 42 -46 0 -46 0 3
-42z"/>
<path d="M1780 1185 l0 -46 43 3 c42 3 42 3 42 43 0 40 0 40 -42 43 l-43 3 0
-46z"/>
<path d="M1924 1216 c-3 -8 -4 -27 -2 -43 3 -25 7 -28 46 -31 l42 -3 0 45 0
46 -40 0 c-26 0 -43 -5 -46 -14z"/>
<path d="M2070 1185 l0 -46 153 3 152 3 0 40 0 40 -152 3 -153 3 0 -46z"/>
<path d="M930 1045 l0 -46 43 3 c42 3 42 3 42 43 0 40 0 40 -42 43 l-43 3 0
-46z"/>
<path d="M714 1076 c-3 -8 -4 -27 -2 -43 l3 -28 80 0 80 0 3 38 c2 25 -1 37
-10 38 -7 0 -43 3 -81 5 -53 4 -69 2 -73 -10z"/>
<path d="M1082 1043 l3 -38 58 -3 57 -3 0 41 0 40 -61 0 -60 0 3 -37z"/>
<path d="M1260 1040 l0 -40 286 0 285 0 -3 38 -3 37 -282 3 -283 2 0 -40z"/>
<path d="M1893 1074 c-2 -7 -3 -27 -1 -46 3 -31 5 -33 43 -33 40 0 40 0 43 41
l3 42 -42 4 c-26 2 -43 -1 -46 -8z"/>
<path d="M2034 1066 c-3 -8 -4 -27 -2 -43 3 -27 5 -28 58 -28 l55 0 0 40 0 40
-53 3 c-39 2 -54 -1 -58 -12z"/>
<path d="M2214 1066 c-3 -8 -4 -27 -2 -43 3 -28 4 -28 79 -31 l77 -3 5 33 c2
18 0 39 -5 46 -15 18 -147 16 -154 -2z"/>
<path d="M1240 610 l0 -150 290 0 290 0 1 53 c1 28 2 95 3 147 l1 95 -292 3
-293 2 0 -150z"/>
</g>
</svg>
