<?xml version="1.0"?>
<svg xmlns="http://www.w3.org/2000/svg" viewBox="-76 0 512 512.00133" width="512px" height="512px"><path d="m310 432c5.519531 0 10-4.480469 10-10s-4.480469-10-10-10-10 4.480469-10 10 4.480469 10 10 10zm0 0" fill="#FFFFFF"/><path d="m66.171875 511.238281c3.738281 1.550781 8.039063.691407 10.898437-2.164062l32.929688-32.929688 32.929688 32.925781c2.859374 2.863282 7.160156 3.714844 10.898437 2.167969 3.734375-1.546875 6.171875-5.191406 6.171875-9.238281v-30h170c16.542969 0 30-13.457031 30-30 0-21.601562 0-398.148438 0-412 0-16.542969-13.457031-30-30-30h-300c-16.542969 0-30 13.460938-30 30v392c0 27.570312 22.429688 50 50 50h10v30c0 4.046875 2.4375 7.691406 6.171875 9.238281zm73.828125-33.378906-22.929688-22.929687c-1.953124-1.953126-4.507812-2.929688-7.070312-2.929688-2.558594 0-5.117188.976562-7.070312 2.929688l-22.929688 22.929687v-45.859375h60zm200-447.859375v342h-260v-352h250c5.515625 0 10 4.488281 10 10zm-310-10h30v352h-10c-11.246094 0-21.636719 3.734375-30 10.027344v-352.027344c0-5.511719 4.488281-10 10-10zm20 432c-16.542969 0-30-13.457031-30-30 0-16.539062 13.457031-30 30-30h290v50c0 5.515625-4.484375 10-10 10h-170v-20h110c5.523438 0 10-4.476562 10-10s-4.476562-10-10-10c-18.0625 0-209.015625 0-220 0-5.519531 0-10 4.476562-10 10s4.480469 10 10 10h10v20zm0 0" fill="#FFFFFF"/><path d="m130 312h160c5.523438 0 10-4.476562 10-10s-4.476562-10-10-10h-30v-116c0-1.5625-.378906-3.117188-1.054688-4.472656l-40-80c-1.695312-3.386719-5.15625-5.527344-8.945312-5.527344s-7.25 2.140625-8.941406 5.527344l-40 80c-.664063 1.324218-1.058594 2.886718-1.058594 4.472656v116h-30c-5.519531 0-10 4.476562-10 10s4.480469 10 10 10zm50-126h20v106h-20zm60 0v106h-20v-106zm-30-67.636719 23.820312 47.636719h-47.636718zm0 0" fill="#FFFFFF"/></svg>
