<?xml version="1.0" standalone="no"?>
<!DOCTYPE svg PUBLIC "-//W3C//DTD SVG 20010904//EN"
 "http://www.w3.org/TR/2001/REC-SVG-20010904/DTD/svg10.dtd">
<svg version="1.0" xmlns="http://www.w3.org/2000/svg"
 width="46.000000pt" height="92.000000pt" viewBox="0 0 46.000000 92.000000"
 preserveAspectRatio="xMidYMid meet">
<metadata>
Created by potrace 1.15, written by Peter Selinger 2001-2017
</metadata>
<g transform="translate(0.000000,92.000000) scale(0.100000,-0.100000)"
fill="#343434" stroke="none">
<path d="M0 460 l0 -460 230 0 230 0 0 245 c0 153 -4 245 -10 245 -6 0 -11
-70 -12 -178 l-3 -177 -165 -3 c-91 -1 -175 0 -187 3 l-23 5 0 358 c0 265 3
361 12 370 8 8 64 12 185 12 165 0 173 -1 184 -21 7 -14 10 -74 8 -179 -2 -87
-1 -162 4 -166 4 -4 7 86 7 199 l0 207 -230 0 -230 0 0 -460z"/>
<path d="M100 747 c0 -57 -3 -186 -7 -285 l-6 -182 161 0 162 0 0 285 0 285
-155 0 -155 0 0 -103z"/>
<path d="M92 213 l3 -48 157 -3 158 -3 0 51 0 50 -161 0 -160 0 3 -47z"/>
</g>
</svg>
